# xmcd
#
# Track frame offsets:
#	150
#	15657
#	32548
#	50256
#	72069
#	91036
#	108932
#	126905
#	142196
#	163323
#	181791
#	199674
#	213578
#	231541
#	253704
#	269141
#
# Disc length: 3800 seconds
#
# Revision: 1
# Processed by: cddbd v1.5.2PL0 Copyright (c) Steve Scherf et al.
# Submitted via: audiograbber 1.83.01
#
DISCID=e90ed610
DTITLE=Chartbuster - ESP492-03
DYEAR=2008
DGENRE=CD&G
TTITLE0=Toby Keith - Get My Drink On
TTITLE1=Taylor Swift - I'm Only Me With You
TTITLE2=Trace Adkins - You're Gonna Miss This
TTITLE3=Kenny Chesney and George Strait - Shift Work
TTITLE4=Reba McEntire and Skip Ewing - Every Other Weekend
TTITLE5=Kenny Chesney - Better As A Memory
TTITLE6=Clay Walker - She Likes It In The Morning
TTITLE7=Julianne Hough - That Song In My Head
TTITLE8=Brad Paisley - Letter To Me
TTITLE9=Brooks and Dunn - God Must Be Busy
TTITLE10=Josh Turner and Trisha Yearwood - Another Try
TTITLE11=Jo Dee Messina - I'm Done
TTITLE12=Josh Gracin - We Weren't Crazy
TTITLE13=Alan Jackson - Small Town Southern Man
TTITLE14=Kellie Pickler - Things That Never Cross A Man's Mind
TTITLE15=Jason Aldean - Laughed Until We Cried
EXTD=
EXTT0=
EXTT1=
EXTT2=
EXTT3=
EXTT4=
EXTT5=
EXTT6=
EXTT7=
EXTT8=
EXTT9=
EXTT10=
EXTT11=
EXTT12=
EXTT13=
EXTT14=
EXTT15=
PLAYORDER=
